<svg height="512" viewBox="0 0 512 512" width="512" xmlns="http://www.w3.org/2000/svg"><g id="Flat"><path d="m16 97.002h480v390.998h-480z" fill="#808080"/><path d="m16 168h480v64h-480z" fill="#ab693d"/><path d="m16 232h480v80h-480z" fill="#da9065"/><path d="m16 112h480v56h-480z" fill="#da9065"/><path d="m16 80h480v32h-480z" fill="#699949"/><path d="m83.32 232-67.32 67.32v-22.64l44.68-44.68z" fill="#ab693d"/><path d="m131.32 232-80 80h-22.64l80-80z" fill="#ab693d"/><path d="m35.32 232-19.32 19.32v-19.32z" fill="#ab693d"/><path d="m179.32 232-80 80h-22.64l80-80z" fill="#ab693d"/><path d="m227.32 232-80 80h-22.64l80-80z" fill="#ab693d"/><path d="m275.32 232-80 80h-22.64l80-80z" fill="#ab693d"/><path d="m323.32 232-80 80h-22.64l80-80z" fill="#ab693d"/><path d="m371.32 232-80 80h-22.64l80-80z" fill="#ab693d"/><path d="m419.32 232-80 80h-22.64l80-80z" fill="#ab693d"/><path d="m467.32 232-80 80h-22.64l80-80z" fill="#ab693d"/><path d="m496 232v19.32l-60.68 60.68h-22.64l80-80z" fill="#ab693d"/><path d="m496 276.68v22.64l-12.68 12.68h-22.64z" fill="#ab693d"/><path d="m496 312v112h-480v-112a23.99411 23.99411 0 0 1 44.99-11.62012 16.008 16.008 0 0 1 27.01 11.62012h78.16a13.64582 13.64582 0 0 0 12.95-9.33984l1.78-5.32032a13.64582 13.64582 0 0 1 12.95-9.33984h8.5a13.6529 13.6529 0 0 1 9.66 4 13.65932 13.65932 0 0 0 9.66 4h1.9a13.64345 13.64345 0 0 1 12.21 7.5498l.46.9004a13.64345 13.64345 0 0 0 12.21 7.5498h127.56l3.6-3.6001a23.64215 23.64215 0 0 1 36.4 3.6001z" fill="#ba8b5d"/><path d="m491.973 395.973-12.96581-12.96581a13.749 13.749 0 0 0 -15.87071-2.57546 13.749 13.749 0 0 1 -13.77528-.85762l-10.72242-7.14828a13.749 13.749 0 0 0 -13.77528-.85762l-17.26327 8.63164a13.749 13.749 0 0 0 -7.60023 12.29748v12.7678a13.749 13.749 0 0 0 10.41435 13.33846l16.42891 4.10723a13.74893 13.74893 0 0 1 8.10522 5.7119l8.96991 13.45487a13.749 13.749 0 0 0 11.43983 6.12241h26.89278a13.749 13.749 0 0 0 13.749-13.749v-28.556a13.749 13.749 0 0 0 -4.027-9.722z" fill="#68737f"/><path d="m390.62741 417.37259 10.74518-10.74518a22.6274 22.6274 0 0 1 16-6.62741 22.62739 22.62739 0 0 1 22.62741 22.62739 22.6274 22.6274 0 0 1 -6.62741 16l-10.74518 10.74518a22.6274 22.6274 0 0 1 -16 6.62741 22.62739 22.62739 0 0 1 -22.62741-22.62737 22.6274 22.6274 0 0 1 6.62741-16.00002z" fill="#4f5761"/><path d="m380.947 460.64011-.28725.14362a31.407 31.407 0 0 1 -33.66549-3.56653l-9.38224-7.5058a31.407 31.407 0 0 1 -11.17732-30.68422 31.407 31.407 0 0 1 25.63386-24.8203l10.67472-1.77912a31.407 31.407 0 0 1 27.37143 8.77159l.68586.68585a31.40709 31.40709 0 0 1 8.589 28.36758l-1.6911 8.45547a31.407 31.407 0 0 1 -16.75147 21.93186z" fill="#68737f"/><path d="m378.79518 376.16346-3.59641-5.41485a14.59862 14.59862 0 0 0 -18.68294-4.9838l-34.282 17.11966a14.59864 14.59864 0 0 1 -4.71146 1.42523l-41.04809 5.131a14.59862 14.59862 0 0 0 -11.24666 21.01458l2.98361 5.96721a14.59861 14.59861 0 0 1 -.91062 14.62655l-1.32046 1.98069a14.59861 14.59861 0 0 0 6.725 21.65232l12.907 5.1628a14.59861 14.59861 0 0 0 17.10067-4.7953l9.00112-12.00149a14.59861 14.59861 0 0 1 19.77674-3.38761 14.5986 14.5986 0 0 0 20.47745-4.40953l27.04587-43.27336a14.5986 14.5986 0 0 0 -.21882-15.8141z" fill="#3e454d"/><path d="m270.62741 377.37259 10.74518-10.74518a22.6274 22.6274 0 0 1 16-6.62741 22.62739 22.62739 0 0 1 22.62741 22.62739 22.6274 22.6274 0 0 1 -6.62741 16l-10.74518 10.74518a22.6274 22.6274 0 0 1 -16 6.62741 22.62739 22.62739 0 0 1 -22.62741-22.62737 22.6274 22.6274 0 0 1 6.62741-16.00002z" fill="#4f5761"/><g fill="#8c5428"><circle cx="48" cy="216" r="8"/><circle cx="64" cy="200" r="8"/><circle cx="32" cy="200" r="8"/><circle cx="48" cy="184" r="8"/><circle cx="80" cy="216" r="8"/><circle cx="96" cy="200" r="8"/><circle cx="80" cy="184" r="8"/><circle cx="112" cy="216" r="8"/><circle cx="128" cy="200" r="8"/><circle cx="112" cy="184" r="8"/><circle cx="144" cy="216" r="8"/><circle cx="160" cy="200" r="8"/><circle cx="144" cy="184" r="8"/><circle cx="176" cy="216" r="8"/><circle cx="192" cy="200" r="8"/><circle cx="176" cy="184" r="8"/><circle cx="208" cy="216" r="8"/><circle cx="224" cy="200" r="8"/><circle cx="208" cy="184" r="8"/><circle cx="240" cy="216" r="8"/><circle cx="256" cy="200" r="8"/><circle cx="240" cy="184" r="8"/><circle cx="272" cy="216" r="8"/><circle cx="288" cy="200" r="8"/><circle cx="272" cy="184" r="8"/><circle cx="304" cy="216" r="8"/><circle cx="320" cy="200" r="8"/><circle cx="304" cy="184" r="8"/><circle cx="336" cy="216" r="8"/><circle cx="352" cy="200" r="8"/><circle cx="336" cy="184" r="8"/><circle cx="368" cy="216" r="8"/><circle cx="384" cy="200" r="8"/><circle cx="368" cy="184" r="8"/><circle cx="400" cy="216" r="8"/><circle cx="416" cy="200" r="8"/><circle cx="400" cy="184" r="8"/><circle cx="432" cy="216" r="8"/><circle cx="448" cy="200" r="8"/><circle cx="432" cy="184" r="8"/><circle cx="464" cy="216" r="8"/><circle cx="480" cy="200" r="8"/><circle cx="464" cy="184" r="8"/></g><path d="m262.351 448h-12.702a25.649 25.649 0 0 1 -25.649-25.649v-9.32389a25.649 25.649 0 0 1 20.6188-25.15089l12.702-2.5404a25.64894 25.64894 0 0 1 13.1411.81813 25.649 25.649 0 0 1 17.5381 24.33279v11.86426a25.649 25.649 0 0 1 -25.649 25.649z" fill="#68737f"/><path d="m189.739 393.13049.28725-.14362a31.40708 31.40708 0 0 1 33.6655 3.56653l9.38224 7.5058a31.40708 31.40708 0 0 1 11.17732 30.68422 31.40706 31.40706 0 0 1 -25.63387 24.8203l-10.67472 1.77912a31.40705 31.40705 0 0 1 -27.37143-8.77159l-.68585-.68585a31.407 31.407 0 0 1 -8.589-28.36758l1.69109-8.45547a31.40707 31.40707 0 0 1 16.75147-21.93186z" fill="#4f5761"/><rect fill="#68737f" height="32" rx="16" width="32" x="216" y="336"/><rect fill="#68737f" height="32" rx="16" width="32" x="328" y="312"/><rect fill="#68737f" height="32" rx="16" width="32" x="296" y="256"/><rect fill="#68737f" height="32" rx="16" width="32" x="368" y="232"/><rect fill="#68737f" height="32" rx="16" width="32" x="120" y="256"/><path d="m22.62741 409.37259 10.74518-10.74518a22.6274 22.6274 0 0 1 16-6.62741 22.62739 22.62739 0 0 1 22.62741 22.62739 22.6274 22.6274 0 0 1 -6.62741 16l-10.74518 10.7452a22.6274 22.6274 0 0 1 -16 6.62741 22.62739 22.62739 0 0 1 -22.62741-22.62739 22.6274 22.6274 0 0 1 6.62741-16.00002z" fill="#4f5761"/><rect fill="#68737f" height="40" rx="20" width="40" x="72" y="320"/><path d="m63.694 451.541a19.60455 19.60455 0 0 0 22.51147 7.72386l33.79453-11.26486 44.714-5.58926a17.22241 17.22241 0 0 0 14.572-21.26646l-1.43827-5.75308a17.2224 17.2224 0 0 1 2.37828-13.73032 17.22242 17.22242 0 0 0 -7.93367-25.54388l-10.29152-4.11661a16.33512 16.33512 0 0 0 -17.61738 3.61611l-6.91425 6.91425a16.3351 16.3351 0 0 1 -20.61175 2.041 16.33511 16.33511 0 0 0 -22.12918 3.79057l-30.406 40.54135a19.60452 19.60452 0 0 0 -.62826 22.63733z" fill="#68737f"/><path d="m184 80h-40l5.24-36.66016 2.76-19.33984a41.98824 41.98824 0 0 1 28.16 32.95z" fill="#7ab355"/><path d="m220.44 62.18994 3.56 17.81006h-40l1.29-7.76a59.09867 59.09867 0 0 1 46.71-48.24 42.26317 42.26317 0 0 0 -11.56 38.18994z" fill="#7ab355"/><path d="m168.15 80h-24.15l5.24-36.66016a69.027 69.027 0 0 1 18.6 35.09009z" fill="#699949"/><path d="m120 80 3.1004-6.2008a32.6744 32.6744 0 0 0 -11.1004-41.7992 61.18815 61.18815 0 0 1 48 48z" fill="#7ab355"/><path d="m224 80h-16.15l.31-1.57007a69.13528 69.13528 0 0 1 11.51-26.65993 42.66155 42.66155 0 0 0 .77 10.41992z" fill="#699949"/><path d="m256 80-3.1004-6.2008a32.6744 32.6744 0 0 1 11.1004-41.7992 61.18815 61.18815 0 0 0 -48 48z" fill="#7ab355"/><path d="m133.65674 157.65723-11.31348-11.31446 8.9707-8.9707a31.78934 31.78934 0 0 1 22.62696-9.37207h6.05908a16.01833 16.01833 0 0 0 16-16h16a32.03635 32.03635 0 0 1 -32 32h-6.05908a15.89354 15.89354 0 0 0 -11.31348 4.68652z" fill="#ffefd6"/><path d="m242.34277 157.65625-9.37256-9.37305a14.53293 14.53293 0 0 0 -10.34277-4.2832 30.66183 30.66183 0 0 1 -30.62744-30.62695v-1.37305h16v1.37305a14.6438 14.6438 0 0 0 14.62744 14.62695 30.4293 30.4293 0 0 1 21.65674 8.96973l9.37305 9.374z" fill="#ffefd6"/></g></svg>