<?xml version="1.0" encoding="iso-8859-1"?>
<!-- Generator: Adobe Illustrator 19.0.0, SVG Export Plug-In . SVG Version: 6.00 Build 0)  -->
<svg version="1.1" id="Capa_1" xmlns="http://www.w3.org/2000/svg" xmlns:xlink="http://www.w3.org/1999/xlink" x="0px" y="0px"
	 viewBox="0 0 512 512" style="enable-background:new 0 0 512 512;" xml:space="preserve">
<path style="fill:#D9EFFF;" d="M304.2,317.129V111.4V63.2c0-26.62-21.581-48.2-48.2-48.2s-48.2,21.58-48.2,48.2v48.2v205.729
	c-28.806,16.67-48.2,47.796-48.2,83.471c0,53.241,43.16,96.4,96.4,96.4s96.4-43.159,96.4-96.4
	C352.4,364.925,333.006,333.799,304.2,317.129z"/>
<path style="fill:#A2D8F4;" d="M304.2,317.129V111.4V63.2c0-26.62-21.581-48.2-48.2-48.2h-0.001v482H256
	c53.24,0,96.4-43.159,96.4-96.4C352.4,364.925,333.006,333.799,304.2,317.129z"/>
<path style="fill:#FF637B;" d="M304.2,317.129V111.4h-96.4v205.729c-28.806,16.67-48.2,47.796-48.2,83.471
	c0,53.241,43.16,96.4,96.4,96.4c53.24,0,96.4-43.159,96.4-96.4C352.4,364.925,333.006,333.799,304.2,317.129z"/>
<path style="fill:#FF193D;" d="M304.2,317.129V111.4h-48.201V497H256c53.24,0,96.4-43.159,96.4-96.4
	C352.4,364.925,333.006,333.799,304.2,317.129z"/>
<path style="fill:#7CC8F0;" d="M256,512c-61.427,0-111.4-49.974-111.4-111.4c0-36.652,18.267-71.031,48.2-91.712V63.2
	C192.8,28.352,221.151,0,256,0s63.2,28.352,63.2,63.2v245.688c29.934,20.681,48.2,55.06,48.2,91.712
	C367.4,462.026,317.427,512,256,512z M256,30c-18.307,0-33.2,14.894-33.2,33.2v253.929c0,5.353-2.854,10.302-7.486,12.982
	C190.2,344.645,174.6,371.654,174.6,400.6c0,44.885,36.517,81.4,81.4,81.4s81.4-36.516,81.4-81.4
	c0-28.945-15.601-55.955-40.714-70.488c-4.633-2.681-7.486-7.629-7.486-12.982V63.2C289.2,44.894,274.307,30,256,30z"/>
<path style="fill:#4BB9EC;" d="M319.2,308.888V63.2C319.2,28.352,290.849,0,256,0h-0.001v30H256c18.307,0,33.2,14.894,33.2,33.2
	v253.929c0,5.353,2.854,10.302,7.486,12.982C321.8,344.645,337.4,371.654,337.4,400.6c0,44.885-36.517,81.4-81.4,81.4h-0.001v30H256
	c61.427,0,111.4-49.974,111.4-111.4C367.4,363.947,349.134,329.568,319.2,308.888z"/>
<g>
</g>
<g>
</g>
<g>
</g>
<g>
</g>
<g>
</g>
<g>
</g>
<g>
</g>
<g>
</g>
<g>
</g>
<g>
</g>
<g>
</g>
<g>
</g>
<g>
</g>
<g>
</g>
<g>
</g>
</svg>
